<?xml version="1.0" encoding="iso-8859-1"?>
<!-- Generator: Adobe Illustrator 19.0.0, SVG Export Plug-In . SVG Version: 6.00 Build 0)  -->
<svg version="1.1" id="Layer_1" xmlns="http://www.w3.org/2000/svg" xmlns:xlink="http://www.w3.org/1999/xlink" x="0px" y="0px"
	 viewBox="0 0 512 512" style="enable-background:new 0 0 512 512;" xml:space="preserve">
<g>
	<g>
		<path d="M0,0v512h512V0H0z M377.749,164.416L200.832,341.333h76.501c11.797,0,21.333,9.557,21.333,21.333S289.131,384,277.333,384
			h-128c-2.773,0-5.547-0.576-8.149-1.643c-5.227-2.155-9.387-6.315-11.541-11.541c-1.067-2.603-1.643-5.376-1.643-8.149v-128
			c0-11.776,9.536-21.333,21.333-21.333s21.333,9.557,21.333,21.333v76.501l176.917-176.917c8.341-8.341,21.824-8.341,30.165,0
			C386.091,142.592,386.091,156.075,377.749,164.416z"/>
	</g>
</g>
<g>
</g>
<g>
</g>
<g>
</g>
<g>
</g>
<g>
</g>
<g>
</g>
<g>
</g>
<g>
</g>
<g>
</g>
<g>
</g>
<g>
</g>
<g>
</g>
<g>
</g>
<g>
</g>
<g>
</g>
</svg>
